<?xml version="1.0" standalone="no"?><!DOCTYPE svg PUBLIC "-//W3C//DTD SVG 1.1//EN" "http://www.w3.org/Graphics/SVG/1.1/DTD/svg11.dtd"><svg t="1718243745844" class="icon" viewBox="0 0 1024 1024" version="1.1" xmlns="http://www.w3.org/2000/svg" p-id="4656" xmlns:xlink="http://www.w3.org/1999/xlink" width="200" height="200"><path d="M338.763294 502.000941H77.462588c-35.779765 0-65.054118-29.274353-65.054117-65.054117V175.646118c0-35.779765 29.274353-65.054118 65.054117-65.054118h261.842824c35.779765 0 65.054118 29.274353 65.054117 65.054118v261.842823a65.234824 65.234824 0 0 1-65.596235 64.512zM77.462588 175.646118v261.842823h261.842824V175.646118H77.462588z m645.662118 380.566588c-17.347765 0-33.611294-6.505412-46.08-18.974118L492.182588 352.376471a64.331294 64.331294 0 0 1-18.974117-46.08c0-17.347765 6.505412-33.611294 18.974117-46.08l184.862118-184.862118c12.468706-12.468706 28.732235-18.974118 46.08-18.974118 17.347765 0 33.611294 6.505412 46.08 18.974118l184.862118 184.862118c12.468706 12.468706 18.974118 28.732235 18.974117 46.08 0 17.347765-6.505412 33.611294-18.974117 46.08L769.204706 537.238588a64.331294 64.331294 0 0 1-46.08 18.974118z m0-435.320471L538.262588 305.754353l184.862118 184.862118 184.862118-184.862118-184.862118-184.862118zM338.763294 1017.012706H77.462588c-35.779765 0-65.054118-29.274353-65.054117-65.054118v-261.842823c0-35.779765 29.274353-65.054118 65.054117-65.054118h261.842824c35.779765 0 65.054118 29.274353 65.054117 65.054118v261.842823a65.355294 65.355294 0 0 1-65.596235 65.054118z m-261.300706-326.354824v261.842824h261.842824v-261.842824H77.462588z m776.312471 326.354824H591.932235c-35.779765 0-65.054118-29.274353-65.054117-65.054118v-261.842823c0-35.779765 29.274353-65.054118 65.054117-65.054118h261.842824c35.779765 0 65.054118 29.274353 65.054117 65.054118v261.842823c0 36.321882-28.732235 65.054118-65.054117 65.054118z m-261.300706-326.354824v261.842824h261.842823v-261.842824H592.474353z" fill="#515151" p-id="4657"></path></svg>