<?xml version="1.0" standalone="no"?><!DOCTYPE svg PUBLIC "-//W3C//DTD SVG 1.1//EN" "http://www.w3.org/Graphics/SVG/1.1/DTD/svg11.dtd"><svg t="1718243697721" class="icon" viewBox="0 0 1024 1024" version="1.1" xmlns="http://www.w3.org/2000/svg" p-id="8119" xmlns:xlink="http://www.w3.org/1999/xlink" width="200" height="200"><path d="M750.933333 435.2C674.133333 307.2 571.733333 153.6 512 0c-59.733333 153.6-162.133333 307.2-238.933333 435.2C213.333333 520.533333 170.666667 580.266667 170.666667 682.666667c0 187.733333 153.6 341.333333 341.333333 341.333333s341.333333-153.6 341.333333-341.333333c0-102.4-42.666667-162.133333-102.4-247.466667zM503.466667 938.666667C375.466667 938.666667 264.533333 827.733333 256 699.733333c0-68.266667 17.066667-119.466667 102.4-247.466666C375.466667 614.4 512 853.333333 725.333333 827.733333c-68.266667 85.333333-153.6 110.933333-221.866666 110.933334z" fill="#DDDDDD" p-id="8120"></path><path d="M512 196.266667c34.133333 68.266667 76.8 128 110.933333 187.733333 17.066667 34.133333 42.666667 59.733333 59.733334 93.866667 8.533333 8.533333 8.533333 17.066667 17.066666 34.133333 42.666667 68.266667 68.266667 102.4 68.266667 170.666667 0 136.533333-110.933333 256-256 256S256 827.733333 256 682.666667c0-68.266667 25.6-102.4 59.733333-170.666667 8.533333-8.533333 17.066667-25.6 25.6-34.133333 17.066667-34.133333 34.133333-59.733333 59.733334-93.866667 34.133333-59.733333 76.8-119.466667 110.933333-187.733333M512 0c-59.733333 153.6-162.133333 307.2-238.933333 435.2C213.333333 520.533333 170.666667 580.266667 170.666667 682.666667c0 187.733333 153.6 341.333333 341.333333 341.333333s341.333333-153.6 341.333333-341.333333c0-110.933333-42.666667-162.133333-93.866666-256-85.333333-119.466667-187.733333-273.066667-247.466667-426.666667z" fill="#404040" p-id="8121"></path></svg>